<svg xmlns="http://www.w3.org/2000/svg" xmlns:xlink="http://www.w3.org/1999/xlink" width="119.316" height="119.316" viewBox="0 0 119.316 119.316">
  <defs>
    <clipPath id="clip-path">
      <circle id="Ellipse_8" data-name="Ellipse 8" cx="59.658" cy="59.658" r="59.658" fill="#fb3099"/>
    </clipPath>
    <clipPath id="clip-path-2">
      <rect id="Rectangle_19" data-name="Rectangle 19" width="103.24" height="103.322" fill="none" stroke="#fff" stroke-width="1"/>
    </clipPath>
  </defs>
  <g id="Group_118" data-name="Group 118" transform="translate(-49 -1552)">
    <circle id="Ellipse_4" data-name="Ellipse 4" cx="59.658" cy="59.658" r="59.658" transform="translate(49 1552)" fill="#fb3099"/>
    <g id="Mask_Group_6" data-name="Mask Group 6" transform="translate(49 1552)" clip-path="url(#clip-path)">
      <g id="Group_68" data-name="Group 68" transform="translate(7.909 30.421)">
        <g id="Group_121" data-name="Group 121" transform="translate(0 0)">
          <g id="Group_71" data-name="Group 71" transform="translate(0 0)" clip-path="url(#clip-path-2)">
            <path id="Path_75" data-name="Path 75" d="M34.048,1C27.785,4.42,18.267,4.682,11.942,6.687c-8.864,2.807-8.864,11.845-8.864,16.7,0,7.76,1.007,23.195,1.007,38.812,0,8.745-3.691,20.465-3,37.818" transform="translate(1.151 1.15)" fill="none" stroke="#fff" stroke-linecap="round" stroke-linejoin="round" stroke-width="2"/>
            <path id="Path_76" data-name="Path 76" d="M7.576,12.871c0,13.935,12.066,39.393,12.066,44.774,0,4.383-8.016,15.447-10.982,28.707" transform="translate(8.719 14.812)" fill="none" stroke="#fff" stroke-linecap="round" stroke-linejoin="round" stroke-width="2"/>
            <path id="Path_77" data-name="Path 77" d="M11.92,23.814c0,6.943-3.409,14.837-3.48,21.04" transform="translate(9.713 27.406)" fill="none" stroke="#fff" stroke-linecap="round" stroke-linejoin="round" stroke-width="2"/>
            <path id="Path_78" data-name="Path 78" d="M46.613,12.871c0,13.935-12.066,39.393-12.066,44.774,0,4.383,8.016,15.447,10.982,28.707" transform="translate(39.758 14.812)" fill="none" stroke="#fff" stroke-linecap="round" stroke-linejoin="round" stroke-width="2"/>
            <line id="Line_7" data-name="Line 7" y1="41.365" transform="translate(51.62 46.501)" fill="none" stroke="#fff" stroke-linecap="round" stroke-linejoin="round" stroke-width="2"/>
            <path id="Path_79" data-name="Path 79" d="M29.112,9.784c0,5.547,1.392,17.63,2.785,22.04" transform="translate(33.503 11.259)" fill="none" stroke="#fff" stroke-linecap="round" stroke-linejoin="round" stroke-width="2"/>
            <path id="Path_80" data-name="Path 80" d="M20.111,9.784c0,5.547-1.392,17.63-2.785,22.04" transform="translate(19.939 11.259)" fill="none" stroke="#fff" stroke-linecap="round" stroke-linejoin="round" stroke-width="2"/>
            <path id="Path_81" data-name="Path 81" d="M31.637,1c6.265,3.418,15.776,3.68,22.1,5.683C62.6,9.493,62.6,18.53,62.6,23.385c0,7.76-1.009,23.195-1.009,38.812,0,8.745,3.691,20.463,3,37.814" transform="translate(36.409 1.152)" fill="none" stroke="#fff" stroke-linecap="round" stroke-linejoin="round" stroke-width="2"/>
            <path id="Path_82" data-name="Path 82" d="M37.942,23.814c0,6.943,3.409,14.837,3.48,21.04" transform="translate(43.665 27.406)" fill="none" stroke="#fff" stroke-linecap="round" stroke-linejoin="round" stroke-width="2"/>
            <line id="Line_8" data-name="Line 8" y1="2.151" transform="translate(68.827 99.02)" fill="none" stroke="#fff" stroke-linecap="round" stroke-linejoin="round" stroke-width="2"/>
            <line id="Line_9" data-name="Line 9" y1="2.151" transform="translate(34.413 99.02)" fill="none" stroke="#fff" stroke-linecap="round" stroke-linejoin="round" stroke-width="2"/>
          </g>
        </g>
      </g>
    </g>
  </g>
</svg>
