<svg xmlns="http://www.w3.org/2000/svg" xmlns:xlink="http://www.w3.org/1999/xlink" width="119.298" height="119.298" viewBox="0 0 119.298 119.298">
  <defs>
    <clipPath id="clip-path">
      <circle id="Ellipse_8" data-name="Ellipse 8" cx="59.649" cy="59.649" r="59.649" fill="#fb3099"/>
    </clipPath>
  </defs>
  <g id="Group_69" data-name="Group 69" transform="translate(-49 -1552)">
    <circle id="Ellipse_4" data-name="Ellipse 4" cx="59.649" cy="59.649" r="59.649" transform="translate(49 1552)" fill="#fb3099"/>
    <g id="Mask_Group_6" data-name="Mask Group 6" transform="translate(49 1552)" clip-path="url(#clip-path)">
      <g id="Group_68" data-name="Group 68" transform="translate(12.957 17.688)">
        <g id="Group_67" data-name="Group 67" transform="translate(0 0)">
          <path id="Path_70" data-name="Path 70" d="M60.742,22.791A26.733,26.733,0,0,1,62.2,31.548c0,19.269-13.383,38.529-26.8,38.529S8.6,50.817,8.6,31.548C8.6,15.01,48.181,19.213,48.181,7.981" transform="translate(11.598 10.578)" fill="none" stroke="#fff" stroke-linecap="round" stroke-linejoin="round" stroke-width="2"/>
          <path id="Path_71" data-name="Path 71" d="M64.4,59.638c5.5-5.846,11.36-13.718,11.36-22.376,0-18.24-12.261-30.376-23.8-35.459V1.792A9.956,9.956,0,0,0,40.61,4.366H40.6A9.956,9.956,0,0,0,29.25,1.792V1.8C17.715,6.886,5.457,19.022,5.457,37.262c0,8.659,5.857,16.53,11.357,22.376" transform="translate(6.392 -1)" fill="none" stroke="#fff" stroke-linecap="round" stroke-linejoin="round" stroke-width="2"/>
          <path id="Path_72" data-name="Path 72" d="M6.913,23.357c-2.2,7.59-2.106,10.836.915,18.171,4.238,10.291,9.079,11.867,9.079,28.209,10.248,0,16.445-9.012,16.445-27.018" transform="translate(6.286 36.079)" fill="none" stroke="#fff" stroke-linecap="round" stroke-linejoin="round" stroke-width="2"/>
          <path id="Path_73" data-name="Path 73" d="M23.486,29.233C23.486,63.676,57.7,50.49,57.7,70.62" transform="translate(36.293 45.824)" fill="none" stroke="#fff" stroke-linecap="round" stroke-linejoin="round" stroke-width="2"/>
          <path id="Path_74" data-name="Path 74" d="M10.831,39.647C3.972,42.016,1,45.485,1,53.349" transform="translate(-1 63.095)" fill="none" stroke="#fff" stroke-linecap="round" stroke-linejoin="round" stroke-width="2"/>
        </g>
      </g>
    </g>
  </g>
</svg>
