<svg xmlns="http://www.w3.org/2000/svg" xmlns:xlink="http://www.w3.org/1999/xlink" width="122.063" height="122.063" viewBox="0 0 122.063 122.063">
  <defs>
    <clipPath id="clip-path">
      <circle id="Ellipse_8" data-name="Ellipse 8" cx="61.031" cy="61.031" r="61.031" fill="#fb3099"/>
    </clipPath>
  </defs>
  <g id="Group_118" data-name="Group 118" transform="translate(-49 -1552)">
    <circle id="Ellipse_4" data-name="Ellipse 4" cx="61.031" cy="61.031" r="61.031" transform="translate(49 1552)" fill="#fb3099"/>
    <g id="Mask_Group_6" data-name="Mask Group 6" transform="translate(49 1552)" clip-path="url(#clip-path)">
      <g id="Group_122" data-name="Group 122" transform="translate(7.413 37.025)">
        <g id="Group_75" data-name="Group 75" transform="translate(0 0)">
          <path id="Path_83" data-name="Path 83" d="M12.984,20.638c1.2,1.56,3.842,2.194,6.287,2.452s5.035.305,7.171,1.2" transform="translate(14.953 25.142)" fill="none" stroke="#fff" stroke-linecap="round" stroke-linejoin="round" stroke-width="2"/>
          <path id="Path_84" data-name="Path 84" d="M42.3,20.638c-1.2,1.56-3.842,2.194-6.287,2.452s-5.035.305-7.171,1.2" transform="translate(36.069 25.142)" fill="none" stroke="#fff" stroke-linecap="round" stroke-linejoin="round" stroke-width="2"/>
          <path id="Path_85" data-name="Path 85" d="M10.283,45q.059,2.262.061,4.669" transform="translate(11.358 57.57)" fill="none" stroke="#fff" stroke-linecap="round" stroke-linejoin="round" stroke-width="2"/>
          <path id="Path_86" data-name="Path 86" d="M9.052,28.6c.259,2.9.662,6.054,1.091,9.542" transform="translate(9.719 35.747)" fill="none" stroke="#fff" stroke-linecap="round" stroke-linejoin="round" stroke-width="2"/>
          <path id="Path_87" data-name="Path 87" d="M14.9,1c4.868,9.619,12.684,16.549,20.512,16.549S51.058,10.621,55.925,1" transform="translate(17.508 -1)" fill="none" stroke="#fff" stroke-linecap="round" stroke-linejoin="round" stroke-width="2"/>
          <path id="Path_88" data-name="Path 88" d="M2.156,102.442C2.156,82.926,1,63.637,1,53.939,1,47.873,1,36.579,11.171,33.07,22.8,29.056,40.652,30.636,40.652,12.583V5.352" transform="translate(-1 4.793)" fill="none" stroke="#fff" stroke-linecap="round" stroke-linejoin="round" stroke-width="2"/>
          <path id="Path_89" data-name="Path 89" d="M68.034,94.94c0-19.517,1.156-38.805,1.156-48.5,0-6.066,0-17.361-10.171-20.869S33.912,22.826,30.331,10.988" transform="translate(38.046 12.296)" fill="none" stroke="#fff" stroke-linecap="round" stroke-linejoin="round" stroke-width="2"/>
          <path id="Path_90" data-name="Path 90" d="M37.805,41.286c-.072,2.028-.114,11.115-.114,13.321" transform="translate(47.844 52.629)" fill="none" stroke="#fff" stroke-linecap="round" stroke-linejoin="round" stroke-width="2"/>
          <path id="Path_91" data-name="Path 91" d="M39.57,28.6c-.259,2.9-.662,6.054-1.091,9.542" transform="translate(48.893 35.747)" fill="none" stroke="#fff" stroke-linecap="round" stroke-linejoin="round" stroke-width="2"/>
        </g>
      </g>
    </g>
  </g>
</svg>
