<svg xmlns="http://www.w3.org/2000/svg" xmlns:xlink="http://www.w3.org/1999/xlink" width="93.78" height="93.78" viewBox="0 0 93.78 93.78">
  <defs>
    <clipPath id="clip-path">
      <circle id="Ellipse_8" data-name="Ellipse 8" cx="46.89" cy="46.89" r="46.89" fill="#fb3099"/>
    </clipPath>
    <clipPath id="clip-path-2">
      <rect id="Rectangle_40" data-name="Rectangle 40" width="51.543" height="50.268" fill="#fff"/>
    </clipPath>
    <clipPath id="clip-path-3">
      <rect id="Rectangle_40-2" data-name="Rectangle 40" width="67.674" height="66" fill="#fff"/>
    </clipPath>
  </defs>
  <g id="Group_298" data-name="Group 298" transform="translate(-89.302 -59.397)">
    <g id="Group_69" data-name="Group 69" transform="translate(89.302 59.397)">
      <circle id="Ellipse_4" data-name="Ellipse 4" cx="46.89" cy="46.89" r="46.89" fill="#fb3099"/>
      <g id="Mask_Group_6" data-name="Mask Group 6" clip-path="url(#clip-path)">
        <g id="Group_161" data-name="Group 161" transform="translate(765.558 -90.939)">
          <rect id="Rectangle_25" data-name="Rectangle 25" width="1.777" height="7.26" transform="translate(12.441 12.619)" fill="#fff"/>
          <rect id="Rectangle_26" data-name="Rectangle 26" width="1.777" height="1.777" transform="translate(18.662 12.77)" fill="#fff"/>
          <g id="Group_103" data-name="Group 103">
            <g id="Group_102" data-name="Group 102" clip-path="url(#clip-path-2)">
              <path id="Path_362" data-name="Path 362" d="M68.881,37.652a13.345,13.345,0,0,1-13.33-13.33V18.99h1.777v5.332a11.553,11.553,0,1,0,23.105,0V16.8A10.259,10.259,0,0,0,70.186,6.549H67.1a11.161,11.161,0,0,1-9.127-4.111c-1.139.82-3.314,2.709-3.314,5.169a5.134,5.134,0,0,0,5.332,5.163v1.777a6.951,6.951,0,0,1-7.109-6.94c0-4.36,4.7-7.052,4.9-7.164L58.567,0,59,.792c.089.159,2.281,3.979,8.106,3.979h3.082A12.039,12.039,0,0,1,82.211,16.8v7.526a13.345,13.345,0,0,1-13.33,13.33" transform="translate(-43.11)" fill="#fff"/>
              <path id="Path_363" data-name="Path 363" d="M33.663,207.113l-.831-1.571,11.836-6.265a3.089,3.089,0,0,0,1.646-2.735v-4.132h1.777v4.132a4.862,4.862,0,0,1-2.592,4.305Z" transform="translate(-26.763 -156.845)" fill="#fff"/>
              <path id="Path_364" data-name="Path 364" d="M177.889,207.113l-11.836-6.265a4.861,4.861,0,0,1-2.592-4.305v-4.132h1.777v4.132a3.088,3.088,0,0,0,1.647,2.735l11.835,6.265Z" transform="translate(-133.246 -156.845)" fill="#fff"/>
              <path id="Path_365" data-name="Path 365" d="M106.884,232.272a10.294,10.294,0,0,1-7.378-3.171l1.262-1.251a8.394,8.394,0,0,0,12.233,0l1.262,1.251a10.294,10.294,0,0,1-7.378,3.171" transform="translate(-81.113 -185.733)" fill="#fff"/>
              <rect id="Rectangle_27" data-name="Rectangle 27" width="6.221" height="1.777" transform="translate(45.322 23.434)" fill="#fff"/>
              <rect id="Rectangle_28" data-name="Rectangle 28" width="6.47" height="1.777" transform="translate(42.41 15.314) rotate(-45)" fill="#fff"/>
              <rect id="Rectangle_29" data-name="Rectangle 29" width="1.777" height="6.47" transform="translate(42.41 33.33) rotate(-45)" fill="#fff"/>
              <rect id="Rectangle_30" data-name="Rectangle 30" width="6.221" height="1.777" transform="translate(0 23.434)" fill="#fff"/>
              <rect id="Rectangle_31" data-name="Rectangle 31" width="6.47" height="1.777" transform="translate(3.301 36.649) rotate(-45)" fill="#fff"/>
              <rect id="Rectangle_32" data-name="Rectangle 32" width="1.777" height="6.47" transform="translate(3.301 11.995) rotate(-45)" fill="#fff"/>
              <rect id="Rectangle_33" data-name="Rectangle 33" width="1.777" height="1.777" transform="translate(24.883 30.543)" fill="#fff"/>
              <rect id="Rectangle_34" data-name="Rectangle 34" width="1.777" height="1.777" transform="translate(20.439 29.654)" fill="#fff"/>
              <rect id="Rectangle_35" data-name="Rectangle 35" width="1.777" height="1.777" transform="translate(17.773 26.1)" fill="#fff"/>
              <rect id="Rectangle_36" data-name="Rectangle 36" width="1.777" height="1.777" transform="translate(16.885 21.656)" fill="#fff"/>
              <rect id="Rectangle_37" data-name="Rectangle 37" width="1.777" height="1.777" transform="translate(29.326 29.654)" fill="#fff"/>
              <rect id="Rectangle_38" data-name="Rectangle 38" width="1.777" height="1.777" transform="translate(31.992 26.1)" fill="#fff"/>
              <rect id="Rectangle_39" data-name="Rectangle 39" width="1.777" height="1.777" transform="translate(32.881 21.656)" fill="#fff"/>
            </g>
          </g>
        </g>
      </g>
    </g>
    <g id="Group_104" data-name="Group 104" transform="translate(102.552 73.004)">
      <rect id="Rectangle_25-2" data-name="Rectangle 25" width="2.333" height="9.532" transform="translate(16.335 16.569)" fill="#fff"/>
      <rect id="Rectangle_26-2" data-name="Rectangle 26" width="2.333" height="2.334" transform="translate(24.503 16.766)" fill="#fff"/>
      <g id="Group_103-2" data-name="Group 103">
        <g id="Group_102-2" data-name="Group 102" clip-path="url(#clip-path-3)">
          <path id="Path_362-2" data-name="Path 362" d="M73.887,49.436a17.521,17.521,0,0,1-17.5-17.5v-7h2.333v7a15.168,15.168,0,1,0,30.337,0V22.053A13.47,13.47,0,0,0,75.6,8.6H71.554c-6.9,0-10.562-3.569-11.984-5.4-1.495,1.077-4.351,3.557-4.351,6.786a6.741,6.741,0,0,0,7,6.779V19.1a9.127,9.127,0,0,1-9.334-9.112c0-5.725,6.167-9.259,6.429-9.406L60.345,0l.566,1.04c.116.208,2.995,5.224,10.643,5.224H75.6A15.807,15.807,0,0,1,91.389,22.053v9.881a17.521,17.521,0,0,1-17.5,17.5" transform="translate(-40.05)" fill="#fff"/>
          <path id="Path_363-2" data-name="Path 363" d="M33.924,211.714l-1.092-2.062,15.54-8.226a4.056,4.056,0,0,0,2.161-3.59v-5.425h2.334v5.425a6.383,6.383,0,0,1-3.4,5.653Z" transform="translate(-24.864 -145.714)" fill="#fff"/>
          <path id="Path_364-2" data-name="Path 364" d="M182.4,211.714l-15.54-8.226a6.383,6.383,0,0,1-3.4-5.653v-5.425h2.334v5.425a4.055,4.055,0,0,0,2.163,3.59l15.539,8.226Z" transform="translate(-123.79 -145.714)" fill="#fff"/>
          <path id="Path_365-2" data-name="Path 365" d="M109.194,233.656a13.516,13.516,0,0,1-9.688-4.164l1.657-1.643a11.021,11.021,0,0,0,16.061,0l1.657,1.643a13.516,13.516,0,0,1-9.688,4.164" transform="translate(-75.357 -172.551)" fill="#fff"/>
          <rect id="Rectangle_27-2" data-name="Rectangle 27" width="8.168" height="2.334" transform="translate(59.507 30.767)" fill="#fff"/>
          <rect id="Rectangle_28-2" data-name="Rectangle 28" width="8.495" height="2.333" transform="translate(55.683 20.107) rotate(-45)" fill="#fff"/>
          <rect id="Rectangle_29-2" data-name="Rectangle 29" width="2.333" height="8.495" transform="translate(55.683 43.762) rotate(-45)" fill="#fff"/>
          <rect id="Rectangle_30-2" data-name="Rectangle 30" width="8.168" height="2.334" transform="translate(0 30.767)" fill="#fff"/>
          <rect id="Rectangle_31-2" data-name="Rectangle 31" width="8.495" height="2.333" transform="translate(4.334 48.119) rotate(-45)" fill="#fff"/>
          <rect id="Rectangle_32-2" data-name="Rectangle 32" width="2.333" height="8.495" transform="translate(4.334 15.749) rotate(-45)" fill="#fff"/>
          <rect id="Rectangle_33-2" data-name="Rectangle 33" width="2.334" height="2.333" transform="translate(32.67 40.102)" fill="#fff"/>
          <rect id="Rectangle_34-2" data-name="Rectangle 34" width="2.333" height="2.333" transform="translate(26.836 38.935)" fill="#fff"/>
          <rect id="Rectangle_35-2" data-name="Rectangle 35" width="2.333" height="2.333" transform="translate(23.336 34.268)" fill="#fff"/>
          <rect id="Rectangle_36-2" data-name="Rectangle 36" width="2.333" height="2.334" transform="translate(22.169 28.434)" fill="#fff"/>
          <rect id="Rectangle_37-2" data-name="Rectangle 37" width="2.334" height="2.333" transform="translate(38.504 38.935)" fill="#fff"/>
          <rect id="Rectangle_38-2" data-name="Rectangle 38" width="2.334" height="2.333" transform="translate(42.005 34.268)" fill="#fff"/>
          <rect id="Rectangle_39-2" data-name="Rectangle 39" width="2.334" height="2.334" transform="translate(43.172 28.434)" fill="#fff"/>
        </g>
      </g>
    </g>
  </g>
</svg>
