<svg xmlns="http://www.w3.org/2000/svg" xmlns:xlink="http://www.w3.org/1999/xlink" width="93.78" height="93.78" viewBox="0 0 93.78 93.78">
  <defs>
    <clipPath id="clip-path">
      <circle id="Ellipse_8" data-name="Ellipse 8" cx="46.89" cy="46.89" r="46.89" fill="#fb3099"/>
    </clipPath>
    <clipPath id="clip-path-2">
      <rect id="Rectangle_40" data-name="Rectangle 40" width="51.543" height="50.268" fill="#fff"/>
    </clipPath>
    <clipPath id="clip-path-3">
      <rect id="Rectangle_84" data-name="Rectangle 84" width="64" height="60" transform="translate(0.498 0.482)" fill="none" stroke="#fff" stroke-width="3"/>
    </clipPath>
  </defs>
  <g id="Group_299" data-name="Group 299" transform="translate(-89.302 -59.397)">
    <g id="Group_69" data-name="Group 69" transform="translate(89.302 59.397)">
      <circle id="Ellipse_4" data-name="Ellipse 4" cx="46.89" cy="46.89" r="46.89" fill="#fb3099"/>
      <g id="Mask_Group_6" data-name="Mask Group 6" clip-path="url(#clip-path)">
        <g id="Group_161" data-name="Group 161" transform="translate(765.558 -90.939)">
          <rect id="Rectangle_25" data-name="Rectangle 25" width="1.777" height="7.26" transform="translate(12.441 12.619)" fill="#fff"/>
          <rect id="Rectangle_26" data-name="Rectangle 26" width="1.777" height="1.777" transform="translate(18.662 12.77)" fill="#fff"/>
          <g id="Group_103" data-name="Group 103">
            <g id="Group_102" data-name="Group 102" clip-path="url(#clip-path-2)">
              <path id="Path_362" data-name="Path 362" d="M68.881,37.652a13.345,13.345,0,0,1-13.33-13.33V18.99h1.777v5.332a11.553,11.553,0,1,0,23.105,0V16.8A10.259,10.259,0,0,0,70.186,6.549H67.1a11.161,11.161,0,0,1-9.127-4.111c-1.139.82-3.314,2.709-3.314,5.169a5.134,5.134,0,0,0,5.332,5.163v1.777a6.951,6.951,0,0,1-7.109-6.94c0-4.36,4.7-7.052,4.9-7.164L58.567,0,59,.792c.089.159,2.281,3.979,8.106,3.979h3.082A12.039,12.039,0,0,1,82.211,16.8v7.526a13.345,13.345,0,0,1-13.33,13.33" transform="translate(-43.11)" fill="#fff"/>
              <path id="Path_363" data-name="Path 363" d="M33.663,207.113l-.831-1.571,11.836-6.265a3.089,3.089,0,0,0,1.646-2.735v-4.132h1.777v4.132a4.862,4.862,0,0,1-2.592,4.305Z" transform="translate(-26.763 -156.845)" fill="#fff"/>
              <path id="Path_364" data-name="Path 364" d="M177.889,207.113l-11.836-6.265a4.861,4.861,0,0,1-2.592-4.305v-4.132h1.777v4.132a3.088,3.088,0,0,0,1.647,2.735l11.835,6.265Z" transform="translate(-133.246 -156.845)" fill="#fff"/>
              <path id="Path_365" data-name="Path 365" d="M106.884,232.272a10.294,10.294,0,0,1-7.378-3.171l1.262-1.251a8.394,8.394,0,0,0,12.233,0l1.262,1.251a10.294,10.294,0,0,1-7.378,3.171" transform="translate(-81.113 -185.733)" fill="#fff"/>
              <rect id="Rectangle_27" data-name="Rectangle 27" width="6.221" height="1.777" transform="translate(45.322 23.434)" fill="#fff"/>
              <rect id="Rectangle_28" data-name="Rectangle 28" width="6.47" height="1.777" transform="translate(42.41 15.314) rotate(-45)" fill="#fff"/>
              <rect id="Rectangle_29" data-name="Rectangle 29" width="1.777" height="6.47" transform="translate(42.41 33.33) rotate(-45)" fill="#fff"/>
              <rect id="Rectangle_30" data-name="Rectangle 30" width="6.221" height="1.777" transform="translate(0 23.434)" fill="#fff"/>
              <rect id="Rectangle_31" data-name="Rectangle 31" width="6.47" height="1.777" transform="translate(3.301 36.649) rotate(-45)" fill="#fff"/>
              <rect id="Rectangle_32" data-name="Rectangle 32" width="1.777" height="6.47" transform="translate(3.301 11.995) rotate(-45)" fill="#fff"/>
              <rect id="Rectangle_33" data-name="Rectangle 33" width="1.777" height="1.777" transform="translate(24.883 30.543)" fill="#fff"/>
              <rect id="Rectangle_34" data-name="Rectangle 34" width="1.777" height="1.777" transform="translate(20.439 29.654)" fill="#fff"/>
              <rect id="Rectangle_35" data-name="Rectangle 35" width="1.777" height="1.777" transform="translate(17.773 26.1)" fill="#fff"/>
              <rect id="Rectangle_36" data-name="Rectangle 36" width="1.777" height="1.777" transform="translate(16.885 21.656)" fill="#fff"/>
              <rect id="Rectangle_37" data-name="Rectangle 37" width="1.777" height="1.777" transform="translate(29.326 29.654)" fill="#fff"/>
              <rect id="Rectangle_38" data-name="Rectangle 38" width="1.777" height="1.777" transform="translate(31.992 26.1)" fill="#fff"/>
              <rect id="Rectangle_39" data-name="Rectangle 39" width="1.777" height="1.777" transform="translate(32.881 21.656)" fill="#fff"/>
            </g>
          </g>
        </g>
      </g>
    </g>
    <g id="Group_232" data-name="Group 232" transform="translate(103.766 76.252)">
      <g id="Group_232-2" data-name="Group 232" transform="translate(0 0)" clip-path="url(#clip-path-3)">
        <line id="Line_21" data-name="Line 21" y1="32" transform="translate(33.498 26.482)" fill="none" stroke="#fff" stroke-linecap="round" stroke-linejoin="round" stroke-width="3"/>
        <line id="Line_22" data-name="Line 22" y1="19" transform="translate(39.498 39.482)" fill="none" stroke="#fff" stroke-linecap="round" stroke-linejoin="round" stroke-width="3"/>
        <line id="Line_23" data-name="Line 23" y1="32" transform="translate(44.498 26.482)" fill="none" stroke="#fff" stroke-linecap="round" stroke-linejoin="round" stroke-width="3"/>
        <path id="Path_406" data-name="Path 406" d="M40.857,13a5.942,5.942,0,0,1,5.955,5.955V33.246A5.942,5.942,0,0,1,40.857,39.2m-11.91,0a5.942,5.942,0,0,1-5.955-5.955V18.955A5.942,5.942,0,0,1,28.948,13" transform="translate(4.467 2.378)" fill="none" stroke="#fff" stroke-linecap="round" stroke-linejoin="round" stroke-width="3"/>
        <circle id="Ellipse_28" data-name="Ellipse 28" cx="5.5" cy="5.5" r="5.5" transform="translate(33.498 1.482)" fill="none" stroke="#fff" stroke-linecap="round" stroke-linejoin="round" stroke-width="3"/>
        <line id="Line_24" data-name="Line 24" y1="14" transform="translate(53.498 41.482)" fill="none" stroke="#fff" stroke-linecap="round" stroke-linejoin="round" stroke-width="3"/>
        <line id="Line_25" data-name="Line 25" y1="29" transform="translate(58.498 26.482)" fill="none" stroke="#fff" stroke-linecap="round" stroke-linejoin="round" stroke-width="3"/>
        <circle id="Ellipse_29" data-name="Ellipse 29" cx="5" cy="5" r="5" transform="translate(48.498 4.482)" fill="none" stroke="#fff" stroke-linecap="round" stroke-linejoin="round" stroke-width="3"/>
        <path id="Path_407" data-name="Path 407" d="M48.993,14a4.753,4.753,0,0,1,4.764,4.764V33.055a4.753,4.753,0,0,1-4.764,4.764" transform="translate(9.432 2.569)" fill="none" stroke="#fff" stroke-linecap="round" stroke-linejoin="round" stroke-width="3"/>
        <line id="Line_26" data-name="Line 26" y1="14" transform="translate(25.498 41.482)" fill="none" stroke="#fff" stroke-linecap="round" stroke-linejoin="round" stroke-width="3"/>
        <line id="Line_27" data-name="Line 27" y1="29" transform="translate(20.498 26.482)" fill="none" stroke="#fff" stroke-linecap="round" stroke-linejoin="round" stroke-width="3"/>
        <ellipse id="Ellipse_30" data-name="Ellipse 30" cx="4.5" cy="5" rx="4.5" ry="5" transform="translate(20.498 4.482)" fill="none" stroke="#fff" stroke-linecap="round" stroke-linejoin="round" stroke-width="3"/>
        <path id="Path_408" data-name="Path 408" d="M17.757,14a4.753,4.753,0,0,0-4.764,4.764V33.055a4.753,4.753,0,0,0,4.764,4.764" transform="translate(2.557 2.569)" fill="none" stroke="#fff" stroke-linecap="round" stroke-linejoin="round" stroke-width="3"/>
        <line id="Line_28" data-name="Line 28" y1="14" transform="translate(11.498 41.482)" fill="none" stroke="#fff" stroke-linecap="round" stroke-linejoin="round" stroke-width="3"/>
        <line id="Line_29" data-name="Line 29" y1="29" transform="translate(5.498 26.482)" fill="none" stroke="#fff" stroke-linecap="round" stroke-linejoin="round" stroke-width="3"/>
        <circle id="Ellipse_31" data-name="Ellipse 31" cx="5" cy="5" r="5" transform="translate(5.498 4.482)" fill="none" stroke="#fff" stroke-linecap="round" stroke-linejoin="round" stroke-width="3"/>
        <path id="Path_409" data-name="Path 409" d="M5.764,14A4.753,4.753,0,0,0,1,18.764V33.055a4.753,4.753,0,0,0,4.764,4.764" transform="translate(0.267 2.569)" fill="none" stroke="#fff" stroke-linecap="round" stroke-linejoin="round" stroke-width="3"/>
      </g>
    </g>
  </g>
</svg>
