<svg xmlns="http://www.w3.org/2000/svg" xmlns:xlink="http://www.w3.org/1999/xlink" width="93.78" height="93.78" viewBox="0 0 93.78 93.78">
  <defs>
    <clipPath id="clip-path">
      <circle id="Ellipse_8" data-name="Ellipse 8" cx="46.89" cy="46.89" r="46.89" fill="#fb3099"/>
    </clipPath>
    <clipPath id="clip-path-2">
      <rect id="Rectangle_40" data-name="Rectangle 40" width="51.543" height="50.268" fill="#fff"/>
    </clipPath>
    <clipPath id="clip-path-3">
      <rect id="Rectangle_85" data-name="Rectangle 85" width="56.753" height="63.33" fill="none" stroke="#fff" stroke-width="3"/>
    </clipPath>
  </defs>
  <g id="Group_297" data-name="Group 297" transform="translate(-89.302 -59.397)">
    <g id="Group_69" data-name="Group 69" transform="translate(89.302 59.397)">
      <circle id="Ellipse_4" data-name="Ellipse 4" cx="46.89" cy="46.89" r="46.89" fill="#fb3099"/>
      <g id="Mask_Group_6" data-name="Mask Group 6" clip-path="url(#clip-path)">
        <g id="Group_161" data-name="Group 161" transform="translate(765.558 -90.939)">
          <rect id="Rectangle_25" data-name="Rectangle 25" width="1.777" height="7.26" transform="translate(12.441 12.619)" fill="#fff"/>
          <rect id="Rectangle_26" data-name="Rectangle 26" width="1.777" height="1.777" transform="translate(18.662 12.77)" fill="#fff"/>
          <g id="Group_103" data-name="Group 103">
            <g id="Group_102" data-name="Group 102" clip-path="url(#clip-path-2)">
              <path id="Path_362" data-name="Path 362" d="M68.881,37.652a13.345,13.345,0,0,1-13.33-13.33V18.99h1.777v5.332a11.553,11.553,0,1,0,23.105,0V16.8A10.259,10.259,0,0,0,70.186,6.549H67.1a11.161,11.161,0,0,1-9.127-4.111c-1.139.82-3.314,2.709-3.314,5.169a5.134,5.134,0,0,0,5.332,5.163v1.777a6.951,6.951,0,0,1-7.109-6.94c0-4.36,4.7-7.052,4.9-7.164L58.567,0,59,.792c.089.159,2.281,3.979,8.106,3.979h3.082A12.039,12.039,0,0,1,82.211,16.8v7.526a13.345,13.345,0,0,1-13.33,13.33" transform="translate(-43.11)" fill="#fff"/>
              <path id="Path_363" data-name="Path 363" d="M33.663,207.113l-.831-1.571,11.836-6.265a3.089,3.089,0,0,0,1.646-2.735v-4.132h1.777v4.132a4.862,4.862,0,0,1-2.592,4.305Z" transform="translate(-26.763 -156.845)" fill="#fff"/>
              <path id="Path_364" data-name="Path 364" d="M177.889,207.113l-11.836-6.265a4.861,4.861,0,0,1-2.592-4.305v-4.132h1.777v4.132a3.088,3.088,0,0,0,1.647,2.735l11.835,6.265Z" transform="translate(-133.246 -156.845)" fill="#fff"/>
              <path id="Path_365" data-name="Path 365" d="M106.884,232.272a10.294,10.294,0,0,1-7.378-3.171l1.262-1.251a8.394,8.394,0,0,0,12.233,0l1.262,1.251a10.294,10.294,0,0,1-7.378,3.171" transform="translate(-81.113 -185.733)" fill="#fff"/>
              <rect id="Rectangle_27" data-name="Rectangle 27" width="6.221" height="1.777" transform="translate(45.322 23.434)" fill="#fff"/>
              <rect id="Rectangle_28" data-name="Rectangle 28" width="6.47" height="1.777" transform="translate(42.41 15.314) rotate(-45)" fill="#fff"/>
              <rect id="Rectangle_29" data-name="Rectangle 29" width="1.777" height="6.47" transform="translate(42.41 33.33) rotate(-45)" fill="#fff"/>
              <rect id="Rectangle_30" data-name="Rectangle 30" width="6.221" height="1.777" transform="translate(0 23.434)" fill="#fff"/>
              <rect id="Rectangle_31" data-name="Rectangle 31" width="6.47" height="1.777" transform="translate(3.301 36.649) rotate(-45)" fill="#fff"/>
              <rect id="Rectangle_32" data-name="Rectangle 32" width="1.777" height="6.47" transform="translate(3.301 11.995) rotate(-45)" fill="#fff"/>
              <rect id="Rectangle_33" data-name="Rectangle 33" width="1.777" height="1.777" transform="translate(24.883 30.543)" fill="#fff"/>
              <rect id="Rectangle_34" data-name="Rectangle 34" width="1.777" height="1.777" transform="translate(20.439 29.654)" fill="#fff"/>
              <rect id="Rectangle_35" data-name="Rectangle 35" width="1.777" height="1.777" transform="translate(17.773 26.1)" fill="#fff"/>
              <rect id="Rectangle_36" data-name="Rectangle 36" width="1.777" height="1.777" transform="translate(16.885 21.656)" fill="#fff"/>
              <rect id="Rectangle_37" data-name="Rectangle 37" width="1.777" height="1.777" transform="translate(29.326 29.654)" fill="#fff"/>
              <rect id="Rectangle_38" data-name="Rectangle 38" width="1.777" height="1.777" transform="translate(31.992 26.1)" fill="#fff"/>
              <rect id="Rectangle_39" data-name="Rectangle 39" width="1.777" height="1.777" transform="translate(32.881 21.656)" fill="#fff"/>
            </g>
          </g>
        </g>
      </g>
    </g>
    <g id="Group_233" data-name="Group 233" transform="translate(108.012 73.238)">
      <g id="Group_233-2" data-name="Group 233" transform="translate(0 0)" clip-path="url(#clip-path-3)">
        <path id="Path_410" data-name="Path 410" d="M33.263,63.043c.868-4.317,1.853-7.051,5.492-6.526,5.74.829,9.743,1.64,9.743-3.7,0-2.722,2.776-3.156,2.4-4.9s-1.308-2,.106-3.322c2.461-2.3-2.472-5.171.765-5.134,4.3.046,4.344-2.993,3.212-4.609-.917-1.307-2.946-4.318-4.4-6.481C53.059,17.1,44.361,1,25.937,1,12.163,1,1,10.881,1,24.585A30.678,30.678,0,0,0,4.211,36.8c3.079,6.58,2.527,13.194,1.65,21.379" transform="translate(0.075 0.075)" fill="none" stroke="#fff" stroke-linejoin="round" stroke-width="3"/>
        <path id="Path_411" data-name="Path 411" d="M6.759,22.32C8.344,10.1,22.078,3.047,34.61,8.243" transform="translate(0.509 0.49)" fill="none" stroke="#fff" stroke-linecap="round" stroke-linejoin="round" stroke-width="3"/>
        <line id="Line_30" data-name="Line 30" y2="0.284" transform="translate(37.802 44.655)" fill="none" stroke="#fff" stroke-linecap="round" stroke-linejoin="round" stroke-width="3"/>
        <line id="Line_31" data-name="Line 31" y2="0.284" transform="translate(36.811 51.12)" fill="none" stroke="#fff" stroke-linecap="round" stroke-linejoin="round" stroke-width="3"/>
        <line id="Line_32" data-name="Line 32" y2="0.284" transform="translate(41.24 48.42)" fill="none" stroke="#fff" stroke-linecap="round" stroke-linejoin="round" stroke-width="3"/>
      </g>
    </g>
  </g>
</svg>
